<?xml version="1.0" standalone="no"?>
<!DOCTYPE svg PUBLIC "-//W3C//DTD SVG 20010904//EN"
 "http://www.w3.org/TR/2001/REC-SVG-20010904/DTD/svg10.dtd">
<svg version="1.0" xmlns="http://www.w3.org/2000/svg"
 width="300.000000pt" height="300.000000pt" viewBox="0 0 300.000000 300.000000"
 preserveAspectRatio="xMidYMid meet">
<metadata>
Created by potrace 1.11, written by Peter Selinger 2001-2013
</metadata>
<g transform="translate(0.000000,300.000000) scale(0.100000,-0.100000)"
fill="#000000" stroke="none">
<path d="M1280 2417 c-55 -12 -120 -49 -120 -68 0 -6 11 -29 24 -52 41 -71 39
-86 -18 -109 -62 -24 -77 -43 -70 -85 4 -18 2 -33 -3 -33 -25 0 -128 -167
-136 -221 -2 -8 -7 -21 -12 -29 -14 -23 -18 -238 -6 -320 12 -78 67 -306 78
-324 4 -5 8 -20 9 -33 2 -18 34 -131 52 -183 3 -8 7 -26 9 -40 15 -89 94 -121
303 -120 l105 0 0 -132 1 -132 -46 -24 c-54 -28 -111 -81 -154 -142 l-31 -45
-65 1 c-112 1 -193 -49 -228 -141 -10 -27 -17 -73 -12 -85 0 -3 3 -20 4 -38 7
-66 -32 -62 622 -62 391 0 594 3 594 10 0 6 -20 39 -45 75 -41 57 -43 65 -25
65 55 0 128 -80 121 -132 -2 -16 8 -18 89 -18 l91 0 -4 45 c-5 54 -60 169 -96
202 -42 37 -89 64 -124 71 -41 8 -122 8 -167 0 -33 -6 -37 -3 -75 45 -45 58
-139 126 -212 153 -26 9 -50 19 -52 20 -6 5 -10 50 -17 176 l-6 118 29 2 c52
3 58 4 68 10 6 3 26 9 46 12 20 3 49 10 64 16 15 6 30 8 33 5 3 -2 10 -1 16 4
6 4 43 19 81 31 39 12 88 30 110 40 22 10 69 30 105 46 116 50 112 45 105 138
-9 129 -28 307 -40 366 -2 14 -7 45 -9 70 -3 25 -8 56 -11 70 -5 27 -13 78
-20 135 -17 129 -79 378 -102 409 -37 50 -117 86 -243 111 -77 16 -358 -5
-387 -28 -10 -7 -13 -4 -14 12 -4 68 -18 116 -38 128 -29 18 -112 23 -171 10z
m-93 -2249 c-2 -7 -15 -41 -27 -76 -23 -62 -23 -62 -36 -36 -20 38 -17 77 6
102 22 24 65 31 57 10z"/>
</g>
</svg>
